# xmcd
#
# Track frame offsets:
#	150
#	15530
#	31512
#	52175
#	72245
#	88637
#	104252
#	117312
#	137920
#	158372
#	177022
#	197072
#	213630
#	236560
#	253692
#	269657
#	283847
#	301667
#
# Disc length: 4229 seconds
#
# Revision: 0
# Processed by: cddbd v1.5.2PL0 Copyright (c) Steve Scherf et al.
# Submitted via: EasyCDDAExtractor 2010.6.0.0
#
DISCID=fb108312
DTITLE=Various Artist - Keeping the Faith 2 (Bishopstock 2000)
DYEAR=2000
DGENRE=Blues
TTITLE0=The Blinds Boys Of Alabama - Down By The Riverside
TTITLE1=Charlie Musselwhite - Harpin' On A Riff
TTITLE2=Ruth Brown - Good Day For The Blues
TTITLE3=Taj Mahal - Queen Bee
TTITLE4=Joe Louis Walker - Runnin' From The Devil
TTITLE5=Magic Slim and The Teardrops - Think
TTITLE6=Booker T. and Th MG's - Green Onions
TTITLE7=Nawfel - Hook Me Up
TTITLE8=KokoTaylor - 63 Year Old Mama
TTITLE9=Michael Hills Blues Mob - Women Make The World Go Round
TTITLE10=Deborah Coleman - My Heart Bleeds Blue
TTITLE11=Corey Harris - Bound To Miss Me
TTITLE12=Susan Tedeschi - It Hurts Me Too
TTITLE13=Mitch Woods - Blues Hangover
TTITLE14=Otis Grand - 38 Th Street Blues
TTITLE15=Michael Roach - Jump Back, Honey, Jump Back
TTITLE16=Jimmie Vaughan - Boom-Bapa-Boom
TTITLE17=Eddie Martin - The Great  Escape
EXTD=
EXTT0=
EXTT1=
EXTT2=
EXTT3=
EXTT4=
EXTT5=
EXTT6=
EXTT7=
EXTT8=
EXTT9=
EXTT10=
EXTT11=
EXTT12=
EXTT13=
EXTT14=
EXTT15=
EXTT16=
EXTT17=
PLAYORDER=
